<svg width="32" height="32" viewBox="0 0 32 32" fill="none" xmlns="http://www.w3.org/2000/svg">
<g clip-path="url(#clip0_446_4)">
<rect width="32" height="32" fill="white"/>
<g clip-path="url(#clip1_446_4)">
<path d="M3.125 16.8973H10.0856V15.1758H3.125V13.4543V10.0112H10.0856V8.28963H3.125V3.125H11.8257V4.84654H4.86514V6.56808H11.8257V11.7327H4.86514V13.4543H11.8257V18.6189H3.125V16.8973Z" fill="#00529A"/>
<path d="M3.125 22.062H10.0856V23.7835H3.125V25.505V28.9481H10.0856V30.6697H3.125V35.8343H11.8257V34.1127H4.86514V32.3912H11.8257V27.2266H4.86514V25.505H11.8257V20.3404H3.125V22.062Z" fill="#00529A"/>
<path d="M24.0067 16.8973H15.306V15.1758H22.2665V13.4543V10.0112H15.306V8.28963H22.2665V3.125H11.8257V4.84654H20.5264V6.56808H13.5658V11.7327H20.5264V13.4543H13.5658V18.6189H24.0067V16.8973Z" fill="#00529A"/>
<path d="M24.0067 22.062H15.306V23.7835H22.2665V25.505V28.9481H15.306V30.6697H22.2665V35.8343H11.8257V34.1127H20.5264V32.3912H13.5658V27.2266H20.5264V25.505H13.5658V20.3404H24.0067V22.062Z" fill="#00529A"/>
<path d="M22.2665 16.8973H30.9672V15.1758H24.0066V13.4543V10.0112H30.9672V8.28963H24.0066V3.125H34.4475V4.84654H25.7468V6.56808H32.7073V11.7327H25.7468V13.4543H32.7073V18.6189H22.2665V16.8973Z" fill="#00529A"/>
<path d="M22.2665 22.062H30.9672V23.7835H24.0066V25.505V28.9481H30.9672V30.6697H24.0066V35.8343H34.4475V34.1127H25.7468V32.3912H32.7073V27.2266H25.7468V25.505H32.7073V20.3404H22.2665V22.062Z" fill="#00529A"/>
<rect x="3.125" y="18.6189" width="1.74014" height="1.72154" fill="#00529A"/>
</g>
<g filter="url(#filter0_d_446_4)">
<path d="M26.2684 13.9863C24.9197 13.9719 23.2292 16.0148 21.8883 18.0365L23.9513 23.2778C26.3106 23.8429 28.9402 24.1853 29.9172 23.2553C32.1313 21.1477 29.3251 14.019 26.2684 13.9863Z" fill="#B10104"/>
<path d="M26.2684 13.9863C24.9197 13.9719 23.2292 16.0148 21.8883 18.0365L23.107 21.1328C25.4663 21.6979 28.0958 22.0402 29.0728 21.1103C29.9852 20.2417 30.045 18.5204 29.586 16.7943C28.7452 15.2186 27.5281 13.9998 26.2684 13.9863Z" fill="#FD1317"/>
<path d="M18.7442 19.2741C16.385 18.709 13.7556 18.3667 12.7786 19.2966C10.5645 21.4041 13.3708 28.5329 16.4274 28.5655C17.7761 28.58 19.4666 26.5371 20.8076 24.5154L18.7442 19.2741Z" fill="#B10104"/>
<path d="M18.0942 22.2899C17.875 21.6797 17.4446 20.2193 17.8411 19.0727C15.747 18.6428 13.6322 18.4841 12.7787 19.2966C11.3536 20.653 12.0083 24.0893 13.4708 26.3751C14.0297 26.8634 14.6387 27.1613 15.2579 27.1679C15.8584 27.1743 16.5267 26.7728 17.2018 26.1469C18.2496 25.1754 18.5953 23.6635 18.1055 22.3212C18.1015 22.3103 18.0978 22.2999 18.0942 22.2899Z" fill="#FD1317"/>
<path d="M23.9138 23.3594C23.5658 24.0432 21.6116 24.8125 20.8908 24.5494C19.4492 24.0232 18.086 20.5602 18.7821 19.1925C19.1301 18.5086 21.0843 17.7394 21.8051 18.0025C23.2466 18.5288 24.6098 21.9917 23.9138 23.3594Z" fill="#FD1317"/>
<path opacity="0.3" d="M21.805 18.0025C21.2072 17.7843 19.7618 18.2763 19.0872 18.8406C18.9986 20.443 20.1606 22.9837 21.3784 23.4283C21.9762 23.6465 23.4216 23.1545 24.0962 22.5902C24.1848 20.9878 23.0229 18.4471 21.805 18.0025Z" fill="#FFBABA"/>
<path opacity="0.3" d="M15.6036 20.6879C15.2772 19.8587 14.5084 19.3849 13.8865 19.6297C13.2646 19.8746 13.025 20.7452 13.3515 21.5744C13.6779 22.4037 14.4467 22.8774 15.0686 22.6326C15.6905 22.3878 15.9301 21.5171 15.6036 20.6879Z" fill="#FFBABA"/>
<path opacity="0.3" d="M27.7751 16.2065C27.4487 15.3773 26.6799 14.9036 26.058 15.1484C25.4361 15.3932 25.1966 16.2639 25.523 17.0931C25.8494 17.9223 26.6182 18.396 27.2401 18.1512C27.862 17.9064 28.1016 17.0357 27.7751 16.2065Z" fill="#FFBABA"/>
</g>
</g>
<defs>
<filter id="filter0_d_446_4" x="11.9848" y="13.9862" width="18.7262" height="16.7669" filterUnits="userSpaceOnUse" color-interpolation-filters="sRGB">
<feFlood flood-opacity="0" result="BackgroundImageFix"/>
<feColorMatrix in="SourceAlpha" type="matrix" values="0 0 0 0 0 0 0 0 0 0 0 0 0 0 0 0 0 0 127 0" result="hardAlpha"/>
<feOffset dy="2.1875"/>
<feComposite in2="hardAlpha" operator="out"/>
<feColorMatrix type="matrix" values="0 0 0 0 0 0 0 0 0 0 0 0 0 0 0 0 0 0 0.83 0"/>
<feBlend mode="normal" in2="BackgroundImageFix" result="effect1_dropShadow_446_4"/>
<feBlend mode="normal" in="SourceGraphic" in2="effect1_dropShadow_446_4" result="shape"/>
</filter>
<clipPath id="clip0_446_4">
<rect width="32" height="32" fill="white"/>
</clipPath>
<clipPath id="clip1_446_4">
<rect width="25.75" height="25.75" fill="white" transform="translate(3.125 3.125)"/>
</clipPath>
</defs>
</svg>
