<svg width="128" height="128" viewBox="0 0 128 128" fill="none" xmlns="http://www.w3.org/2000/svg">
<g clip-path="url(#clip0_457_38)">
<rect width="128" height="128" fill="white"/>
<path d="M95 11H116V18H102V25H116V32H95V18V11Z" fill="#00529A"/>
<path d="M95 39H116V46H102V53H116V60H95V46V39Z" fill="#00529A"/>
<path d="M11 11H88V32H60V39H88V60H60V67H95V74H53V53H81V46H53V25H81V18H18V25H46V46H18V53H46V74H18V81H46V102H18V109H81V102H79V95H88V116H11V95H39V88H11V67H39V60H11V39H39V32H11V11Z" fill="#00529A"/>
<path d="M95 95H116V102H102V109H116V116H95V102V95Z" fill="#00529A"/>
<path d="M105.074 65.9453C105.074 65.9453 55.0228 83.4667 51.1149 87.1864C42.2583 95.6165 53.4834 124.132 65.7099 124.262C71.1046 124.32 83.2299 108.063 83.2299 108.063C85.8726 110.272 94.4135 105.847 95.8056 103.111C105.243 105.372 115.761 106.741 119.669 103.021C130.188 94.4114 112.919 65.0975 105.074 65.9453Z" fill="black" fill-opacity="0.8"/>
<path d="M105.074 55.9452C99.6793 55.8875 92.9173 64.0592 87.5536 72.1459L95.8057 93.1111C105.243 95.3716 115.761 96.7411 119.669 93.0212C128.526 84.591 117.301 56.0761 105.074 55.9452Z" fill="#B10104"/>
<path d="M105.074 55.9453C99.6793 55.8875 92.9173 64.0592 87.5536 72.1459L92.4285 84.531C101.866 86.7915 112.384 88.1609 116.292 84.4412C119.941 80.9669 120.18 74.0814 118.344 67.1773C114.981 60.8742 110.113 55.9992 105.074 55.9453Z" fill="#FD1317"/>
<path d="M74.9774 77.0963C65.5405 74.8359 55.0229 73.4667 51.1151 77.1864C42.2584 85.6165 53.4835 114.132 65.71 114.262C71.105 114.32 77.8669 106.148 83.2308 98.0614L74.9774 77.0963Z" fill="#B10104"/>
<path d="M72.3771 89.1595C71.5005 86.7188 69.7789 80.8773 71.3648 76.2909C62.9887 74.5713 54.5294 73.9365 51.1151 77.1864C45.415 82.6121 48.0335 96.3571 53.8835 105.5C56.1194 107.454 58.5552 108.645 61.0319 108.672C63.4343 108.697 66.1075 107.091 68.8078 104.588C72.999 100.702 74.3818 94.6539 72.4225 89.2848C72.4067 89.2413 72.3915 89.1995 72.3771 89.1595Z" fill="#FD1317"/>
<path d="M95.6557 93.4375C94.2637 96.173 86.4469 99.25 83.5637 98.1975C77.7975 96.0927 72.3446 82.2407 75.1287 76.7701C76.5207 74.0346 84.3375 70.9575 87.2208 72.01C92.9869 74.1151 98.4397 87.9668 95.6557 93.4375Z" fill="#FD1317"/>
<path opacity="0.3" d="M87.2208 72.0101C84.8297 71.1373 79.0483 73.1052 76.3496 75.3624C75.9955 81.7721 80.6432 91.935 85.5147 93.7133C87.9058 94.5861 93.6872 92.6182 96.3859 90.361C96.74 83.9513 92.0925 73.7885 87.2208 72.0101Z" fill="#FFBABA"/>
<path opacity="0.3" d="M62.4155 82.7515C61.1098 79.4347 58.0347 77.5397 55.547 78.519C53.0594 79.4983 52.1012 82.981 53.4068 86.2978C54.7125 89.6147 57.7877 91.5096 60.2753 90.5304C62.763 89.5511 63.7212 86.0684 62.4155 82.7515Z" fill="#FFBABA"/>
<path opacity="0.3" d="M111.102 64.8262C109.796 61.5093 106.721 59.6143 104.233 60.5936C101.745 61.5729 100.787 65.0556 102.093 68.3724C103.399 71.6893 106.474 73.5843 108.961 72.605C111.449 71.6257 112.407 68.143 111.102 64.8262Z" fill="#FFBABA"/>
</g>
<defs>
<clipPath id="clip0_457_38">
<rect width="128" height="128" fill="white"/>
</clipPath>
</defs>
</svg>
