<svg width="16" height="17" viewBox="0 0 16 17" fill="none" xmlns="http://www.w3.org/2000/svg">
<g clip-path="url(#clip0_431_1236)">
<path d="M5.01016 8.5006C5.01016 10.1492 6.35138 11.4903 8.00001 11.4903C9.64854 11.4903 10.9897 10.1491 10.9897 8.5006C10.9897 6.85202 9.64854 5.5108 8.00001 5.5108C6.35138 5.5108 5.01016 6.85202 5.01016 8.5006Z" fill="white"/>
<path d="M14.8843 4.5541C14.9076 4.51313 14.9072 4.46282 14.8831 4.42227C14.1867 3.24939 13.1957 2.26694 12.0171 1.58114C10.8025 0.874254 9.41329 0.500641 7.99999 0.500641C5.55409 0.500641 3.27464 1.59829 1.74609 3.51216C1.71236 3.55433 1.70795 3.61282 1.73497 3.65957L3.98703 7.56016C4.01064 7.60107 4.05418 7.62573 4.10055 7.62573C4.10643 7.62573 4.11241 7.62531 4.11834 7.62452C4.17111 7.61734 4.21429 7.57894 4.22761 7.52737C4.67168 5.80677 6.22294 4.60509 7.99999 4.60509C8.11026 4.60509 8.22415 4.61012 8.33861 4.61988C8.34234 4.62025 8.34612 4.6204 8.34984 4.6204H14.7704C14.8175 4.6204 14.8611 4.59512 14.8843 4.5541Z" fill="white"/>
<path d="M9.18216 12.2999C9.14959 12.2578 9.09493 12.2397 9.04336 12.254C8.70463 12.3483 8.35363 12.3961 8 12.3961C6.49752 12.3961 5.11276 11.5149 4.47208 10.1512C4.47051 10.1478 4.46877 10.1446 4.46694 10.1413L1.25435 4.57708C1.23095 4.53642 1.18762 4.51151 1.14077 4.51151C1.14056 4.51151 1.1403 4.51151 1.14009 4.51151C1.09298 4.51177 1.0496 4.53721 1.02652 4.57823C0.35499 5.76984 0 7.12617 0 8.50059C0 10.4287 0.695607 12.2912 1.95866 13.7449C3.20918 15.1841 4.93078 16.1312 6.80645 16.4119C6.81296 16.4129 6.81946 16.4133 6.82591 16.4133C6.87224 16.4133 6.91578 16.3886 6.93944 16.3477L9.19208 12.4459C9.21873 12.3998 9.21479 12.3421 9.18216 12.2999Z" fill="white"/>
<path d="M15.3273 5.49545H10.8171C10.7638 5.49545 10.7158 5.52772 10.6958 5.57703C10.6756 5.62634 10.6873 5.68299 10.7253 5.72024C11.48 6.46002 11.8955 7.4474 11.8955 8.50057C11.8955 9.29784 11.655 10.0651 11.1998 10.7195C11.1977 10.7225 11.1957 10.7256 11.1939 10.7288L7.97575 16.3027C7.9522 16.3435 7.95236 16.3938 7.97612 16.4345C7.99967 16.4748 8.04279 16.4994 8.08933 16.4994C8.0898 16.4994 8.09032 16.4994 8.09079 16.4994C10.2086 16.4758 12.1959 15.6333 13.6865 14.1271C15.1784 12.6197 16 10.6215 16 8.50057C16 7.49246 15.8148 6.50943 15.4493 5.57871C15.4296 5.52845 15.3812 5.49545 15.3273 5.49545Z" fill="white"/>
</g>
<defs>
<clipPath id="clip0_431_1236">
<rect width="16" height="16" fill="white" transform="translate(0 0.5)"/>
</clipPath>
</defs>
</svg>
