<svg width="16" height="17" viewBox="0 0 16 17" fill="none" xmlns="http://www.w3.org/2000/svg">
<g clip-path="url(#clip0_431_1244)">
<path d="M15.8408 5.94919C15.7827 5.94027 15.7257 5.97127 15.7014 6.02483L15.5224 6.42114C15.4544 5.9002 15.3283 5.06173 15.1618 4.51194C14.9079 3.66539 14.3704 3.11812 14.3476 3.09519C14.3064 3.0538 14.2429 3.04462 14.1916 3.07264C14.1404 3.10065 14.1139 3.15914 14.1266 3.2161L14.2657 3.84291C13.931 3.49323 13.3933 2.99133 12.8611 2.74667C12.7332 2.6843 12.6032 2.62712 12.4893 2.57781C11.3332 1.55093 9.85072 0.985657 8.31233 0.985657C6.14588 0.985657 4.17142 2.07093 3.00237 3.89631C2.89237 3.80745 2.73815 3.65202 2.64976 3.42798C2.48903 3.03392 2.40762 2.59124 2.40678 2.58684C2.39813 2.53931 2.36414 2.50039 2.31818 2.48549C2.27234 2.47059 2.22187 2.48213 2.18699 2.51555C1.22358 3.43936 1.3192 4.8796 1.35514 5.20604C1.23575 5.33356 0.898293 5.71167 0.557379 6.25716C0.134055 6.93495 0.005904 8.11984 0.000710814 8.16993C-0.00511185 8.22585 0.0252604 8.27925 0.0763006 8.30275C0.12755 8.32625 0.187823 8.31456 0.226326 8.27374L0.508279 7.9759C0.47754 8.08988 0.446591 8.21982 0.418002 8.36533C0.291005 8.9935 0.328144 9.96788 0.32977 10.0091C0.332183 10.0694 0.37546 10.1203 0.434683 10.1323C0.493854 10.1445 0.553602 10.1144 0.57941 10.0598L0.74533 9.70853C0.867658 10.5637 1.3373 12.3832 3.13808 14.0593C4.47184 15.3017 6.32691 16.0143 8.22766 16.0144C8.22787 16.0144 8.22793 16.0144 8.22814 16.0144C10.0729 16.0144 11.8148 15.3546 13.2651 14.1065C14.98 12.6291 15.6189 10.5193 15.8528 9.0095C16.1053 7.37952 15.9575 6.11611 15.951 6.06312C15.9441 6.00469 15.899 5.95811 15.8408 5.94919ZM12.9127 5.99666C12.9144 5.99897 13.0924 6.23198 13.1312 6.82904C13.1579 7.27587 13.0662 7.99043 13.0084 8.38138L12.659 7.97595C12.6213 7.9322 12.5595 7.91814 12.5066 7.94159C12.4538 7.96493 12.4225 8.02006 12.4295 8.07735C12.4307 8.08742 12.5498 9.09694 12.3494 9.97443C12.2546 10.3868 12.1062 10.6832 11.9789 10.8788L12.0277 10.2179C12.0324 10.1545 11.9909 10.0969 11.9293 10.0812C11.8676 10.0654 11.8036 10.0962 11.7774 10.1542C11.7716 10.1672 11.1659 11.4675 9.50718 11.9824C9.27553 12.0537 9.03156 12.0899 8.78197 12.0899C7.89787 12.0899 7.09455 11.6389 6.63918 11.3219C6.67836 11.3239 6.71734 11.3249 6.7561 11.3249C7.4084 11.3249 7.91004 11.0439 8.31322 10.8181C8.41913 10.7588 8.51917 10.7027 8.61542 10.6552C9.1948 10.3638 9.46417 10.3394 9.67111 10.3394C9.78043 10.3394 9.86473 10.2755 9.89116 10.1728C9.95595 9.92072 9.65285 9.47138 9.27858 9.26533C9.09293 9.1644 8.89444 9.1174 8.65403 9.1174C8.27152 9.1174 7.79726 9.23805 7.1179 9.42196C6.99321 9.45522 6.87009 9.47211 6.75196 9.47211C6.33567 9.47216 6.06037 9.27078 5.90274 9.10182C5.69061 8.87448 5.5698 8.57406 5.58758 8.31786C5.59566 8.20104 5.6414 8.0816 5.91937 8.0816C6.16597 8.0816 6.44005 8.18326 6.44273 8.1842C6.45768 8.18987 6.47336 8.19265 6.48894 8.19265C6.48921 8.19265 6.48957 8.19265 6.48994 8.19265C6.56238 8.19265 6.62108 8.13395 6.62108 8.06151C6.62108 8.05442 6.6205 8.04745 6.61945 8.04068L6.58279 6.89194C6.71524 6.80748 7.03218 6.60201 7.33685 6.38054C8.07391 5.84475 8.17264 5.63985 8.09374 5.48422C7.98925 5.27229 7.71422 5.23788 7.39576 5.19801C7.21352 5.17519 7.007 5.14933 6.82047 5.08759C6.43187 4.95844 6.17583 4.62293 6.11755 4.54047C6.10549 4.47144 6.07664 4.23885 6.19073 4.0403C6.31421 3.82329 6.74126 3.4873 6.89543 3.3761C6.93949 3.34436 6.95943 3.2887 6.94552 3.2362C6.93162 3.18374 6.88683 3.14518 6.83285 3.13936C6.81963 3.13789 6.42783 3.09876 5.78781 3.31068C5.26671 3.48526 4.86253 3.76821 4.72326 3.87317C4.66335 3.86142 4.5608 3.84521 4.3909 3.82769C5.38888 2.70072 6.80442 2.05918 8.31254 2.05918C9.41942 2.05918 10.4652 2.39579 11.3556 3.03581L10.474 3.18327C10.414 3.19329 10.3689 3.24312 10.3647 3.30365C10.3606 3.36424 10.3986 3.41974 10.4565 3.43784C10.4683 3.44151 11.6425 3.81269 12.5186 4.48807C12.7136 4.64066 12.8918 4.83827 13.0486 5.07553C13.1948 5.3889 13.3092 5.71203 13.3903 6.04004L13.0955 5.81097C13.0431 5.77031 12.9693 5.77572 12.9226 5.82266C12.8756 5.86951 12.8717 5.94457 12.9127 5.99666Z" fill="white"/>
</g>
<defs>
<clipPath id="clip0_431_1244">
<rect width="16" height="16" fill="white" transform="translate(0 0.5)"/>
</clipPath>
</defs>
</svg>
