<svg width="128" height="128" viewBox="0 0 128 128" fill="none" xmlns="http://www.w3.org/2000/svg">
<rect width="128" height="128" fill="white"/>
<path d="M95 11H116V18H102V25H116V32H95V18V11Z" fill="#CDCDCD"/>
<path d="M95 39H116V46H102V53H116V60H95V46V39Z" fill="#CDCDCD"/>
<path d="M11 11H88V32H60V39H88V60H60V67H116V74H53V53H81V46H53V25H81V18H18V25H46V46H18V53H46V74H18V81H46V102H18V109H81V102H53V95V81H116V88H60V95H88V116H11V95H39V88H11V67H39V60H11V39H39V32H11V11Z" fill="#CDCDCD"/>
<path d="M95 95H116V102H102V109H116V116H95V102V95Z" fill="#CDCDCD"/>
</svg>
